<?xml version="1.0" encoding="UTF-8"?>
<svg width="32" height="32" viewBox="0 0 32 32" fill="none" xmlns="http://www.w3.org/2000/svg">
  <!-- Background Circle -->
  <circle cx="16" cy="16" r="16" fill="url(#gradient)"/>
  
  <!-- DM Letters - Made bolder for small size visibility -->
  <path d="M8 10C8 9.44772 8.44772 9 9 9H13C15.2091 9 17 10.7909 17 13V19C17 21.2091 15.2091 23 13 23H9C8.44772 23 8 22.5523 8 22V10Z" fill="white"/>
  <path d="M15 10C15 9.44772 15.4477 9 16 9H19C21.2091 9 23 10.7909 23 13V19C23 21.2091 21.2091 23 19 23H16C15.4477 23 15 22.5523 15 22V10Z" fill="white"/>
  
  <!-- Gradient Definition -->
  <defs>
    <linearGradient id="gradient" x1="0" y1="0" x2="32" y2="32" gradientUnits="userSpaceOnUse">
      <stop offset="0%" style="stop-color:#00d068"/>
      <stop offset="100%" style="stop-color:#00c65b"/>
    </linearGradient>
  </defs>
</svg> 